<svg id="Layer_1" data-name="Layer 1" xmlns="http://www.w3.org/2000/svg" viewBox="0 0 756.94 752.51"><defs><style>.cls-1{fill:#7e52a0;}</style></defs><path class="cls-1" d="M617.06,238.48q4.16-7.69,7.25-13.93t6.82-14.62q3.74-8.37,7.6-17.78t6-15q6.78,2.76,11,4.38,4.37,1.69,10.74,3.9t12.33,4.51c4.66,1.79,8.76,3.55,12.29,5.25a38.47,38.47,0,0,1,6.95,4.21,24.69,24.69,0,0,1,4.71,4.63,18,18,0,0,1,2.58,4.71,14.13,14.13,0,0,1,.76,5.12,16.44,16.44,0,0,1-1.14,5.5,18.71,18.71,0,0,1-3.15,5.4,16.77,16.77,0,0,1-4.87,3.93,19.57,19.57,0,0,1-6.6,2.15,51.64,51.64,0,0,1-9.86.24l.6,6.93c.18,1.93.4,3.92.66,6l2.15,16.28c.1.71.25,2.08.43,4.12q-9-3.56-12.1-4.76c-2.62-1-6.94-2.63-12.93-4.87,0-1.82.1-5.18.23-10.09.08-2,.08-3.64,0-4.79q-.06-3.76-.37-10.64L658.55,214a39.48,39.48,0,0,0,5.62,2.69,25.85,25.85,0,0,0,7.63,1.78,10.41,10.41,0,0,0,6.12-1.23,7.57,7.57,0,0,0,3.39-3.81,5.6,5.6,0,0,0,.07-3.95,8.21,8.21,0,0,0-3.1-3.76,37.27,37.27,0,0,0-8.06-3.94c-1.28-.49-2.61-1-4-1.46s-3-1.05-4.83-1.73q-4.32,9.15-10.08,22.5t-10.93,26.32c-6.08-2.41-10-4-11.85-4.66Q625.36,241.56,617.06,238.48Z" transform="translate(-161.53 -163.75)"/><path class="cls-1" d="M691.42,268.48Q700,259,705.5,252.4t14.29-17.77q8.79-11.17,11.47-14.95l2.46-3.56q11.21,8.1,27.2,19.47Q775.67,246.09,787,254l-1,1.25q-.39.45-2.71,3.31l-3.39,4.15c-.73.89-1.43,1.81-2.11,2.77q-9-6.87-15.24-11.33-6.88-4.89-9.3-6.58t-7.65-5.17l-7.14,8.81q5.54,4.13,13,9.46,2.68,1.9,14.43,9.85-4.12,4.79-9.61,11.59-8.19-6-12.63-9.11-6.58-4.69-14.94-10.21l-7.51,9.34,5.49,3.9q2.43,1.74,10.15,7l10,6.83q2.22,1.51,7.58,4.91-4.8,5.52-9.69,11.59-11.6-8.37-25.48-18.25l-21-14.91Z" transform="translate(-161.53 -163.75)"/><path class="cls-1" d="M752.86,311.88l8.77-5.6L790.28,286l11.38-8.39,6-4.84q5.64,7.13,10,12.55,3.14,3.88,8.91,10.84l-13.93,43.49-2.19,6.21q6.84-4.69,18.87-13.55t16.46-12.46q4.46,5.66,7.18,9,1.26,1.54,7.31,8.85L848,345.84l-33.32,23.62-9.36,7.14q-4.73-6-8.89-11.13-3.48-4.29-9.68-11.78,1.83-5.4,2.59-7.91l4.71-16.47q2.3-8.12,4.61-15.26,1.41-4.6,3.31-9.84l-18.92,13.72-15.64,11.9q-4.5-5.7-6.89-8.65Q758.5,318.67,752.86,311.88Z" transform="translate(-161.53 -163.75)"/><path class="cls-1" d="M807.25,375.81l8.39,1.89,55.76,10.37,6.18,1c1.81.28,4.39.66,7.76,1.12q3.74,9.62,5.49,14,3.07,7.68,5.76,14.17L880.7,433.94l-30.2,30.79-5.42,5.82q-3.68-9.46-4.48-11.48-1.82-4.57-5.46-13.42a190.16,190.16,0,0,0,15-14l-10.94-27.39q-9.93-1.51-21.64-2.7-4-10.17-4.87-12.46Q811,385,807.25,375.81Zm47.86,29.74,6.75,16.9q13.59-12.74,15-14-8.15-.9-13.43-1.69Z" transform="translate(-161.53 -163.75)"/><path class="cls-1" d="M911.61,470.36q.67,9.12,1,12.85.4,4.67,1.17,12.42l-21,.05q-5.94,0-11.11.17c-3.44.12-5.82.23-7.13.35a25.55,25.55,0,0,0-6.17,1.17,9.25,9.25,0,0,0-4,2.7,10.48,10.48,0,0,0-2.22,4.92,22,22,0,0,0-.35,6.35,20.6,20.6,0,0,0,1.1,5.19,13.23,13.23,0,0,0,1.75,3.32,11.15,11.15,0,0,0,2.24,2.16,14.14,14.14,0,0,0,3.69,1.85,18.67,18.67,0,0,0,5.26,1q3.26.25,14.72.15,9.76-.08,17.85-.35c5.24-.22,7.86-.23,7.88,0q.76,8.8,1.19,13.89l1,11.85-35.06.15c-.66,0-1.2,0-1.62.08q-10.23.65-14.52-.25a18,18,0,0,1-7.64-3.55,26.28,26.28,0,0,1-6.3-8,48.8,48.8,0,0,1-4.6-12.43,102,102,0,0,1-2.57-27A57.94,57.94,0,0,1,847.58,489a38.8,38.8,0,0,1,2.83-8.13,19.31,19.31,0,0,1,3.4-5,14.61,14.61,0,0,1,4.41-3,20.05,20.05,0,0,1,6.44-1.61c.78-.06,2-.13,3.56-.18s3.89-.08,6.89-.06l7.91.09c2.08,0,5.12,0,9.13-.14Z" transform="translate(-161.53 -163.75)"/><path class="cls-1" d="M849.74,561.1q11.22,3.35,18.35,5.17,13,3.39,25.95,6.15t21.24,4.13q-1.39,7.85-2.39,13.91-.67,4.1-1.84,11.8L893.7,598l-27.21-6.27-6.71-1.34q-1.78,9.92-2.28,12.93-2.5,15.21-3.45,23.07l-14.46-3.69q2.61-15.18,4.87-28.94Q847.54,575.1,849.74,561.1Z" transform="translate(-161.53 -163.75)"/><path class="cls-1" d="M831.45,643.93a526.87,526.87,0,0,0,47.39,23.23l9-23.28,4.94,2.35q4,1.88,8.75,4-6.42,15.34-14.82,35.83l-5.45,13.41-5.34,13-2.84,7.06-4.33-2.15q-3.5-1.7-5.81-2.73c-1.54-.7-2.71-1.21-3.51-1.54q5.26-11.39,8.35-18.91l1.56-3.79Q861.6,686.26,855,683q-9.53-4.6-18.59-8.71t-14.75-6.44q3.74-8.85,4.8-11.45Q827.38,654.1,831.45,643.93Z" transform="translate(-161.53 -163.75)"/><path class="cls-1" d="M777.11,740.38q7,9.35,11.71,15,8.46,10.44,17.25,20.34t14.66,15.91q-5.78,5.49-10.17,9.78-3,2.91-8.48,8.41l-11.43-13.74L772.46,775l-4.61-5.07q-7.32,6.95-9.5,9.06-11,10.77-16.46,16.54L732.43,784q11.1-10.69,21.09-20.43Q767,750.35,777.11,740.38Z" transform="translate(-161.53 -163.75)"/><path class="cls-1" d="M759.82,847.57q-8,4.47-11.21,6.34-4.07,2.34-10.76,6.31l-8.93-19q-2.49-5.38-4.85-10t-3.33-6.32a25.83,25.83,0,0,0-3.68-5.09,9.22,9.22,0,0,0-4.16-2.52,10.61,10.61,0,0,0-5.39.07,22.11,22.11,0,0,0-5.9,2.37,20.82,20.82,0,0,0-4.24,3.19,13.33,13.33,0,0,0-2.27,3,10.77,10.77,0,0,0-1,2.94A14,14,0,0,0,694,833a18.69,18.69,0,0,0,1.35,5.17q1.15,3.06,6.1,13.4,4.2,8.8,7.87,16c2.41,4.66,3.53,7,3.37,7.13l-12.09,7-10.3,5.94-15-31.71c-.29-.58-.55-1.06-.76-1.43q-4.9-9-5.91-13.27a17.89,17.89,0,0,1,0-8.42,26.13,26.13,0,0,1,4.63-9.11,48.65,48.65,0,0,1,9.31-9.43,101.35,101.35,0,0,1,12-8.12,99,99,0,0,1,11.36-5.64,57.79,57.79,0,0,1,9.93-3.08,39.5,39.5,0,0,1,8.56-.87,19.27,19.27,0,0,1,6,1,14.59,14.59,0,0,1,4.56,2.74,19.91,19.91,0,0,1,4.18,5.15q.58,1,1.68,3.15t3,6.21l3.26,7.21c.87,1.89,2.19,4.62,4,8.21Z" transform="translate(-161.53 -163.75)"/><path class="cls-1" d="M631.56,872.33,622.32,890,615,904.62l-2.2,4.88q-10.62,2.46-14.38,3.37l-13.59,3.38L602.67,885l3.26-6.2-5.58-4.64-30.82-23.31,14-3.29q4.56-1.1,15.41-3.82Q609.14,853.58,631.56,872.33ZM651.77,831q1.08,9.21,2,15.21,1.65,10.64,5.06,29,2.37,12.81,3.61,18l1,4.11q-9.53,2.21-13.11,3.07-2.39.57-12.27,3.06L632.16,867l-5.77-29.9,12.37-2.88Q641.39,833.57,651.77,831Z" transform="translate(-161.53 -163.75)"/><path class="cls-1" d="M462.94,841.52q-4.15,7.69-7.25,13.93t-6.82,14.62q-3.74,8.37-7.6,17.78t-6,15q-6.78-2.76-11-4.39-4.37-1.68-10.74-3.89t-12.33-4.51c-4.66-1.79-8.76-3.55-12.29-5.25a38.47,38.47,0,0,1-6.95-4.21,24.69,24.69,0,0,1-4.71-4.63,18,18,0,0,1-2.58-4.71,14.13,14.13,0,0,1-.76-5.12,16.44,16.44,0,0,1,1.14-5.5,18.71,18.71,0,0,1,3.15-5.4,16.94,16.94,0,0,1,4.87-3.93,19.57,19.57,0,0,1,6.6-2.15,51.64,51.64,0,0,1,9.86-.24l-.6-6.93c-.18-1.93-.4-3.92-.66-6l-2.15-16.28c-.1-.71-.25-2.08-.43-4.12q9,3.55,12.1,4.76c2.62,1,6.94,2.63,12.93,4.87,0,1.82-.1,5.18-.23,10.09-.08,2-.08,3.64,0,4.79q.06,3.76.37,10.64l.63,15.17a39.48,39.48,0,0,0-5.62-2.69,25.85,25.85,0,0,0-7.63-1.78,10.41,10.41,0,0,0-6.12,1.23,7.57,7.57,0,0,0-3.39,3.81,5.6,5.6,0,0,0-.07,4,8.21,8.21,0,0,0,3.1,3.76,37.27,37.27,0,0,0,8.06,3.94c1.28.49,2.61,1,4,1.46s3,1.05,4.83,1.73q4.32-9.15,10.08-22.49t10.93-26.33c6.08,2.41,10,4,11.85,4.66Q454.64,838.44,462.94,841.52Z" transform="translate(-161.53 -163.75)"/><path class="cls-1" d="M388.58,811.52Q380,821,374.5,827.6t-14.29,17.77q-8.79,11.18-11.47,15l-2.46,3.56q-11.2-8.1-27.2-19.47Q304.34,833.91,293,826l1-1.25q.39-.45,2.71-3.31l3.39-4.15c.73-.89,1.43-1.81,2.11-2.77q9,6.87,15.24,11.33,6.88,4.89,9.3,6.58t7.65,5.17l7.14-8.81q-5.54-4.12-13-9.46-2.69-1.9-14.43-9.85,4.13-4.79,9.61-11.58,8.19,5.94,12.63,9.1,6.58,4.69,14.94,10.21l7.51-9.34-5.49-3.9q-2.43-1.74-10.15-7l-10-6.83q-2.22-1.51-7.58-4.91,4.8-5.52,9.69-11.59,11.6,8.37,25.48,18.25l21,14.91Z" transform="translate(-161.53 -163.75)"/><path class="cls-1" d="M327.14,768.12l-8.76,5.6L289.72,794l-11.38,8.39-6,4.84q-5.64-7.12-10.05-12.55-3.13-3.88-8.91-10.84l13.93-43.49,2.19-6.21q-6.84,4.7-18.87,13.55T234.2,760.17q-4.45-5.65-7.18-9-1.26-1.54-7.31-8.85L232,734.16l33.32-23.62,9.36-7.14q4.72,6,8.89,11.13,3.48,4.29,9.68,11.78c-1.22,3.6-2.08,6.24-2.59,7.9l-4.71,16.48q-2.29,8.12-4.61,15.27-1.41,4.59-3.31,9.83l18.92-13.72,15.64-11.9q4.5,5.7,6.89,8.65Q321.5,761.33,327.14,768.12Z" transform="translate(-161.53 -163.75)"/><path class="cls-1" d="M272.75,704.19l-8.39-1.89L208.6,691.93l-6.18-1c-1.81-.28-4.39-.66-7.76-1.13q-3.74-9.6-5.49-14-3.06-7.68-5.76-14.17l15.89-15.55,30.2-30.79,5.42-5.82q3.68,9.46,4.48,11.48,1.82,4.58,5.46,13.42a190.16,190.16,0,0,0-15,14l10.94,27.39q9.93,1.51,21.64,2.7,4,10.17,4.87,12.46Q269,695,272.75,704.19Zm-47.86-29.74-6.75-16.9q-13.59,12.74-15,14,8.15.9,13.43,1.69Z" transform="translate(-161.53 -163.75)"/><path class="cls-1" d="M168.39,609.63q-.67-9.11-1-12.84-.4-4.66-1.17-12.42l21,0c4,0,7.66,0,11.11-.17s5.82-.23,7.13-.35a25.55,25.55,0,0,0,6.17-1.17,9.25,9.25,0,0,0,4-2.7,10.48,10.48,0,0,0,2.22-4.92,22,22,0,0,0,.35-6.35,20.6,20.6,0,0,0-1.1-5.19,13.06,13.06,0,0,0-1.75-3.32,11.15,11.15,0,0,0-2.24-2.16,14.14,14.14,0,0,0-3.69-1.85,18.67,18.67,0,0,0-5.26-1q-3.25-.25-14.72-.15-9.76.08-17.85.35c-5.24.22-7.86.23-7.88,0q-.77-8.8-1.19-13.89l-1-11.85,35.06-.15c.66,0,1.2,0,1.62-.08q10.23-.65,14.52.25a18.06,18.06,0,0,1,7.65,3.55,26.42,26.42,0,0,1,6.29,8,48.8,48.8,0,0,1,4.6,12.43,102,102,0,0,1,2.57,27,58.19,58.19,0,0,1-1.42,10.3,38.9,38.9,0,0,1-2.83,8.12,19.31,19.31,0,0,1-3.4,5,14.61,14.61,0,0,1-4.41,3,20.05,20.05,0,0,1-6.44,1.61c-.78.06-2,.13-3.56.18s-3.89.08-6.89.06l-7.91-.09c-2.08,0-5.12,0-9.13.14Z" transform="translate(-161.53 -163.75)"/><path class="cls-1" d="M230.26,518.9q-11.22-3.35-18.35-5.17-13-3.39-25.95-6.15t-21.24-4.13q1.4-7.84,2.39-13.91.67-4.1,1.84-11.8L186.3,482l27.21,6.27,6.71,1.34q1.78-9.92,2.28-12.93Q225,461.5,226,453.64l14.46,3.69q-2.61,15.18-4.87,28.94Q232.47,504.9,230.26,518.9Z" transform="translate(-161.53 -163.75)"/><path class="cls-1" d="M248.55,436.07a526.87,526.87,0,0,0-47.39-23.23l-9,23.28-4.94-2.35q-4-1.87-8.75-4,6.42-15.35,14.82-35.83l5.45-13.41,5.34-13L207,360.5l4.33,2.15q3.5,1.69,5.81,2.73c1.54.7,2.71,1.21,3.51,1.54q-5.26,11.38-8.35,18.91l-1.56,3.79Q218.4,393.75,225,397q9.53,4.61,18.59,8.71t14.75,6.44q-3.74,8.85-4.8,11.45Q252.62,425.91,248.55,436.07Z" transform="translate(-161.53 -163.75)"/><path class="cls-1" d="M302.89,339.62q-7-9.35-11.71-15.05-8.46-10.44-17.25-20.34t-14.66-15.91q5.78-5.49,10.17-9.78,3-2.91,8.48-8.41l11.43,13.74L307.54,305l4.61,5.07q7.32-6.94,9.5-9.06,11-10.77,16.46-16.54l9.46,11.54q-11.1,10.69-21.09,20.43Q313,329.65,302.89,339.62Z" transform="translate(-161.53 -163.75)"/><path class="cls-1" d="M320.18,232.43q8-4.47,11.21-6.34,4.07-2.34,10.76-6.31l8.93,19q2.49,5.39,4.85,10t3.33,6.32a25.83,25.83,0,0,0,3.68,5.09,9.22,9.22,0,0,0,4.16,2.52,10.61,10.61,0,0,0,5.39-.07,22.11,22.11,0,0,0,5.9-2.37,20.82,20.82,0,0,0,4.24-3.19,13.33,13.33,0,0,0,2.27-3,10.65,10.65,0,0,0,1-2.94A14,14,0,0,0,386,247a18.69,18.69,0,0,0-1.35-5.17q-1.16-3.06-6.1-13.4-4.2-8.8-7.87-16c-2.41-4.66-3.53-7-3.37-7.13l12.09-7,10.3-5.94,15,31.71c.29.58.55,1.06.76,1.43q4.91,9,5.91,13.27a17.89,17.89,0,0,1,0,8.42,26.13,26.13,0,0,1-4.63,9.11,48.65,48.65,0,0,1-9.31,9.43,101.35,101.35,0,0,1-12,8.12,99,99,0,0,1-11.36,5.64,57.79,57.79,0,0,1-9.93,3.08,39.5,39.5,0,0,1-8.56.87,19.27,19.27,0,0,1-6-1,14.59,14.59,0,0,1-4.56-2.74,19.91,19.91,0,0,1-4.18-5.15q-.58-1-1.68-3.15t-3-6.21L333,258c-.87-1.89-2.19-4.62-4-8.21Z" transform="translate(-161.53 -163.75)"/><path class="cls-1" d="M428.23,249q-1.08-9.21-2-15.21-1.65-10.64-5.06-29-2.37-12.81-3.61-18l-1-4.11q9.53-2.2,13.11-3.07,2.39-.57,12.27-3.06L447.84,213l5.77,29.9-12.37,2.88Q438.62,246.44,428.23,249Zm20.21-41.37L457.68,190l7.37-14.63,2.2-4.88q10.62-2.46,14.38-3.37l13.59-3.38L477.33,195l-3.26,6.2,5.58,4.64,30.82,23.31-14,3.29q-4.56,1.09-15.41,3.82Q470.86,226.42,448.44,207.67Z" transform="translate(-161.53 -163.75)"/></svg>